<svg xmlns="http://www.w3.org/2000/svg" viewBox="0 0 512 512" fill="none">
  <!-- 로뎀 카페 로고: 컵에 담긴 로뎀나무 -->
  <g stroke="#3d2f23" stroke-width="22" stroke-linecap="round" stroke-linejoin="round">
    <!-- 나무 수관 (구름 모양) -->
    <path d="M 165 205
             C 148 175, 162 132, 196 118
             C 200 84, 238 62, 272 74
             C 306 58, 348 78, 354 116
             C 384 132, 392 174, 370 200
             C 372 224, 352 244, 328 242
             C 312 258, 284 260, 266 248
             C 244 262, 210 258, 196 240
             C 176 240, 162 224, 165 205 Z" />
    <!-- 줄기와 가지 -->
    <path d="M 258 178 L 258 336" />
    <path d="M 258 232 L 302 202" />
    <!-- 컵 (아래 반원) -->
    <path d="M 126 288 C 134 368, 190 420, 258 420 C 326 420, 382 368, 390 288" />
    <!-- 컵 손잡이 -->
    <path d="M 390 300 C 426 286, 444 304, 432 324 C 422 341, 400 338, 392 326" />
  </g>
</svg>
